<?xml version="1.0" encoding="utf-8"?>
<svg style="fill-rule:evenodd;clip-rule:evenodd;stroke-linejoin:round;stroke-miterlimit:1.41421;" width="100%" height="100%" viewBox="0 0 100 100" xmlns="http://www.w3.org/2000/svg">
  <path d="M 67.306 52.123 C 64.371 48.569 39.89 44.446 39.89 44.446 C 39.89 44.446 44.538 40.818 58.792 42.168 C 66.503 42.898 69.945 44.424 74.075 46.652 C 87.168 53.715 93.081 64.24 95.474 70.289 C 97.364 66.021 98.391 63.253 99.013 58.456 C 98.691 57.853 98.873 51.642 86.155 41.708 C 84.526 40.436 83.529 39.476 77.494 36.313 C 72.8 33.852 66.619 32.804 66.089 32.694 C 54.204 30.234 37.097 33.521 37.097 33.521 C 37.097 33.521 44.131 26.988 62.867 27.321 C 83.12 27.681 94.527 39.604 99.514 45.891 C 99.035 40.346 98.387 37.297 96.231 32.423 C 87.215 20.359 74.018 15.794 61.797 15.947 C 47.561 16.126 34.858 22.186 34.858 22.186 C 34.858 22.186 42.802 13.069 62.334 11.232 C 71.74 10.347 79.609 12.944 87.064 16.244 C 78.612 7.083 71.452 3.396 63.589 2.215 C 60.53 1.755 53.436 2.683 50.299 3.34 C 40.117 5.473 32.504 10.336 32.504 10.336 C 42.007 3.014 47.468 1.2 52.962 0.316 C 22.541 -2.605 0.25 24.945 0.25 50.222 C 0.25 77.651 22.517 99.889 49.982 99.889 C 60.784 99.889 70.773 96.439 78.927 90.6 C 78.805 90.355 78.696 90.146 78.57 89.889 C 74.569 81.811 69.019 75.441 63.457 70.561 C 52.842 61.244 42.186 57.351 42.186 57.351 C 42.186 57.351 47.997 57.107 55.309 58.869 C 61.031 60.247 65.636 62.238 70.544 66.486 C 75.882 71.109 81.449 78.241 84.532 85.796 C 87.2 83.689 89.658 80.592 91.841 77.986 C 91.698 77.626 87.675 59.484 63.82 50.117" style="fill: rgb(255, 101, 0); fill-rule: nonzero;"/>
  <ellipse transform="matrix(NaN, NaN, NaN, NaN, NaN, NaN)" style="fill: rgb(216, 216, 216);"/>
  <ellipse transform="matrix(NaN, NaN, NaN, NaN, NaN, NaN)" style="fill: rgb(216, 216, 216);"/>
</svg>